<svg id="Слой_1" data-name="Слой 1" xmlns="http://www.w3.org/2000/svg" viewBox="0 0 107.91 65.36"><defs><clipPath id="clip-path"><path fill="none" d="M-91.34-6.84h1680v3033.67h-1680z"/></clipPath></defs><g clip-path="url(#clip-path)"><path fill="#eeefef" d="M-91.34-6.84h1680V69.8h-1680z"/><path d="M9.49 54.41H4.73A3.64 3.64 0 012 53.32a3.76 3.76 0 01-1-2.74 3.5 3.5 0 011-2.66 3.79 3.79 0 012.71-1H9v1.31H4.73a2.43 2.43 0 00-1.73.68 2.4 2.4 0 00-.69 1.78A2.31 2.31 0 003 52.43a2.45 2.45 0 001.77.67h3.42v-1.63H4.64v-1.2h4.85zm7.32 0h-6.46v-7.5h1.3v6.19h5.16v1.31zm10.44-3.83a3.75 3.75 0 01-1.06 2.74 3.66 3.66 0 01-2.71 1.09h-2.1a3.64 3.64 0 01-2.7-1.09 3.76 3.76 0 01-1.07-2.74 3.5 3.5 0 011.06-2.66 3.77 3.77 0 012.71-1h2.1a3.78 3.78 0 012.72 1 3.53 3.53 0 011.05 2.66m-1.25.11a2.38 2.38 0 00-2.48-2.47h-2.1a2.38 2.38 0 00-2.47 2.47 2.32 2.32 0 00.7 1.74 2.45 2.45 0 001.77.67h2.1a2.45 2.45 0 001.78-.67 2.32 2.32 0 00.7-1.74m10.74 1.53a1.82 1.82 0 01-.24.91 2.9 2.9 0 01-2.75 1.26h-5.37V46.9h5.37a2.94 2.94 0 012.69 1.2 1.9 1.9 0 01.3 1 2 2 0 01-.74 1.6 1.88 1.88 0 01.79 1.52m-1.26-3.1a.8.8 0 00-.55-.73 2.52 2.52 0 00-1-.18h-4.29v4.88H34a2.84 2.84 0 001-.16c.38-.17.57-.4.57-.7a.77.77 0 00-.57-.7 2.49 2.49 0 00-1-.17h-3.5v-1.31H34a2.2 2.2 0 001-.2.79.79 0 00.55-.73m18.93 5.29h-6.46v-7.5h1.31v6.19h5.15v1.31zm12.29 0h-4.24a3.66 3.66 0 01-2.7-1.09 3.76 3.76 0 01-1.07-2.74 3.5 3.5 0 011.06-2.66 3.79 3.79 0 012.71-1h4.24v1.31h-4.24a2.43 2.43 0 00-1.77.69 2.4 2.4 0 00-.69 1.78 2.31 2.31 0 00.69 1.74 2.45 2.45 0 001.77.67h4.24zm10.7-3.83a3.75 3.75 0 01-1.06 2.74 3.65 3.65 0 01-2.71 1.09h-2.1a3.66 3.66 0 01-2.7-1.09 3.76 3.76 0 01-1.07-2.74 3.5 3.5 0 011.06-2.66 3.79 3.79 0 012.71-1h2.1a3.78 3.78 0 012.72 1 3.53 3.53 0 011 2.66m-1.29.11a2.37 2.37 0 00-.7-1.78 2.42 2.42 0 00-1.78-.69H71.6a2.43 2.43 0 00-1.77.69 2.4 2.4 0 00-.69 1.78 2.31 2.31 0 00.69 1.74 2.45 2.45 0 001.77.67h2.1a2.45 2.45 0 001.78-.67 2.28 2.28 0 00.7-1.74m20.44 3.72H92.4a3.64 3.64 0 01-2.7-1.09 3.72 3.72 0 01-1.07-2.74 3.5 3.5 0 011.06-2.66 3.77 3.77 0 012.71-1h4.22v1.31H92.4a2.38 2.38 0 00-2.47 2.47 2.28 2.28 0 00.7 1.74 2.42 2.42 0 001.77.67h4.22zm-63.45 6.75a1.3 1.3 0 01-.46 1 1.67 1.67 0 01-1.1.36h-3.46v-.79h3.46a1.05 1.05 0 00.57-.15.55.55 0 00.27-.48.51.51 0 00-.28-.47 1 1 0 00-.56-.14h-2.14a1.52 1.52 0 01-1-.33 1.23 1.23 0 010-1.85 1.52 1.52 0 011-.33h3.43v.79h-3.43a.55.55 0 00-.38.13.44.44 0 000 .68.6.6 0 00.38.12h2.14a1.63 1.63 0 011.1.37 1.32 1.32 0 01.46 1m22.59 1.49h-3.92v-4.54h.79v3.75h3.13v.79zm10.5 0h-3.93V58h3.93v.79h-3.14v3h3.14zm-.21-1.91h-2.59v-.79h2.59zm11.95.51a1.3 1.3 0 01-.46 1 1.67 1.67 0 01-1.1.36H73v-.79h3.46a1.05 1.05 0 00.57-.15.55.55 0 00.27-.48.51.51 0 00-.28-.47 1 1 0 00-.56-.14h-2.18a1.52 1.52 0 01-1-.33 1.23 1.23 0 010-1.85 1.52 1.52 0 011-.33h3.43v.79h-3.43a.55.55 0 00-.38.13.44.44 0 000 .68.6.6 0 00.38.12h2.14a1.63 1.63 0 011.1.37 1.32 1.32 0 01.46 1M.96 60.29h21.48v.38H.96zm82.63 0h21.48v.38H83.59zM44.23 48.44L44 48l-.23-.39a1.27 1.27 0 00-.13-.19l-.37-.6h-1l-.39.62a1 1 0 00-.11.17l-.49.81-3.58 6h1.68l3.38-5.55L44 51l.78 1.29 1.26 2.09h1.68zm40.37 0l-.25-.44-.23-.39a1.27 1.27 0 00-.13-.19l-.37-.6h-1l-.39.62a1 1 0 00-.11.17l-.49.81-3.58 6h1.68l3.38-5.55L84.37 51l.78 1.29 1.26 2.09h1.68zM43.55 59l-.15-.25-.15-.24-.07-.11L43 58h-.62l-.23.37a.61.61 0 00-.07.1l-.3.49-2.15 3.58h1l2-3.34.79 1.31.47.77.75 1.26h1z"/><path fill="#7ab931" d="M65.56 17.87H53.32v4.96h12.24v12.25h4.97V17.87h-4.97z"/><path d="M53.32 32.77A12.42 12.42 0 1160.6 10.3V4.57a17.38 17.38 0 10-7.28 33.16 17.23 17.23 0 007.28-1.6V30.4a12.33 12.33 0 01-7.28 2.37" fill="#005ac3"/><path d="M99.21 54.41h-1.3v-7.5h1.3zm6.3 0h-1.31v-3.12h-4.4V50h4.4v-3.09h1.31z"/></g></svg>